<svg xmlns="http://www.w3.org/2000/svg" viewBox="0 0 50.73 50.73"><defs><style>.cls-1{fill:#181818;}</style></defs><g id="Layer_2" data-name="Layer 2"><g id="Layer_1-2" data-name="Layer 1"><path class="cls-1" d="M37.58,50.73H13.15A13.17,13.17,0,0,1,0,37.58V13.15A13.17,13.17,0,0,1,13.15,0H37.58A13.17,13.17,0,0,1,50.73,13.15V37.58A13.17,13.17,0,0,1,37.58,50.73ZM13.15,3.83a9.33,9.33,0,0,0-9.32,9.32V37.58a9.34,9.34,0,0,0,9.32,9.33H37.58a9.35,9.35,0,0,0,9.33-9.33V13.15a9.34,9.34,0,0,0-9.33-9.32Z"/><path class="cls-1" d="M25.37,38.13A12.77,12.77,0,1,1,38.13,25.37,12.78,12.78,0,0,1,25.37,38.13Zm0-21.7a8.94,8.94,0,1,0,8.93,8.94A8.95,8.95,0,0,0,25.37,16.43Z"/><circle class="cls-1" cx="39.5" cy="11.3" r="3.28"/></g></g></svg>