<svg xmlns="http://www.w3.org/2000/svg" viewBox="0 0 614.4 477.97"><defs><style>.cls-1{stroke:#000;stroke-miterlimit:10;stroke-width:7.88px;}</style></defs><g id="Layer_2" data-name="Layer 2"><g id="Lag_1" data-name="Lag 1"><path d="M276.55,2.75V200h23.54v1.87H210.93V200h23.41V6.77L170.59,201.89H161L88.75,8.21v117.3C88.75,179.92,102,200,123.21,200h1.87v1.87H52V200h1.86c19.67,0,32.88-19.52,32.88-74.51V2.75H60.61V.88h71.21l54.42,145.88L234.05.88h66V2.75Z"/><path d="M559.26,61.62c0,30.29-20.1,59.29-76,59.29-11.63,0-21.24-1.29-28.57-4V200h26.13v1.87H389.12V200h23.4V2.75h-23.4V.88h83.7C528.1.88,559.26,23.42,559.26,61.62Zm-45.8-.44c0-34.31-8.76-58.43-48.25-58.43H454.73V115.17A57.3,57.3,0,0,0,473.68,118C507.43,118,513.46,92.2,513.46,61.18Z"/><line class="cls-1" x1="345.07" x2="345.07" y2="203.39"/><path d="M80.18,329.85V403.1h11V405H60.38V403.1h11V330.62L44.32,405H42.23L14.85,332.32v52c0,13.58,2.25,18.81,11.77,18.81h.66V405H0V403.1H.71c8.8,0,12.16-5.23,12.16-18.81V329.85H1.59V328H22.82L47,391.71,70.17,328h21v1.87Z"/><path d="M136.89,396a22.65,22.65,0,0,1-19,10.4c-12.48,0-24.36-10.89-24.36-26.73,0-15.62,11.6-26.78,24.14-26.78s19.25,10.67,19.25,22.44c0,.6,0,1.21-.06,1.81H102c0,.72-.06,1.43-.06,2.15,0,16.82,6.88,25,17.11,25A19.6,19.6,0,0,0,135.51,395Zm-8.36-20.73c.06-.77.06-1.54.06-2.31,0-10.34-3.91-18.2-12-18.2-8.25,0-13.75,8.3-14.58,20.51Z"/><path d="M171.21,400.68a13.15,13.15,0,0,1-10.56,5.72c-9.24,0-11.27-7.32-11.27-15.57v-34.7h-8v-1.87h8v-9.79a17.71,17.71,0,0,0,7.64-6.26v16.05h13.59v1.87H157v39.38c0,6.43,2.31,8.58,5.45,8.58,3.3,0,6.16-2.86,7.26-4.51Z"/><path d="M203.72,400.68a13.17,13.17,0,0,1-10.56,5.72c-9.24,0-11.27-7.32-11.27-15.57v-34.7h-8v-1.87h8v-9.79a17.71,17.71,0,0,0,7.64-6.26v16.05h13.58v1.87H189.53v39.38c0,6.43,2.31,8.58,5.44,8.58,3.3,0,6.16-2.86,7.26-4.51Z"/><path d="M250.41,396a22.64,22.64,0,0,1-19,10.4c-12.48,0-24.36-10.89-24.36-26.73,0-15.62,11.61-26.78,24.15-26.78s19.24,10.67,19.24,22.44c0,.6,0,1.21,0,1.81H215.49c0,.72-.05,1.43-.05,2.15,0,16.82,6.87,25,17.1,25A19.63,19.63,0,0,0,249,395Zm-8.36-20.73c.06-.77.06-1.54.06-2.31,0-10.34-3.91-18.2-12-18.2-8.25,0-13.75,8.3-14.57,20.51Z"/><path d="M347.1,350.8c0,12.43-9.62,22.77-27.94,22.77A38.61,38.61,0,0,1,307,371.75V403.1h12V405H287.16V403.1h11V329.85h-11V328H316.8C334.56,328,347.1,336.39,347.1,350.8Zm-9.68-.17c0-18-14.08-20.78-23.54-20.78H307v40a31.52,31.52,0,0,0,10.78,1.82C332.58,371.7,337.42,362.13,337.42,350.63Z"/><path d="M398.91,401.61a11.73,11.73,0,0,1-9.07,4.79c-5.06,0-7.54-3.58-7.7-8.86-.88,2.59-6.82,8.86-15.57,8.86-7,0-15.45-4.13-15.45-13.37,0-6.71,4.07-10,11.66-11.49,9.46-1.87,19.47-4.4,19.47-15.12,0-6.44-3.91-11.72-12.65-11.72-8.58,0-13.53,4.24-13.53,9.63a4.21,4.21,0,0,1,4.24-3.52,4.41,4.41,0,0,1,4.5,4.62,4.71,4.71,0,0,1-4.89,4.78c-2.86,0-5.5-2.09-5.5-6.21,0-6.38,6.38-11.11,16.06-11.11,11.71,0,19.19,6.49,19.19,20.57v27.22c0,1.92.77,3,2.59,3,2.09,0,4.06-1.43,5.44-3.46Zm-36.18-18.26c-2.48,1.82-3.69,5.06-3.69,9.3,0,8,4.73,11.27,9.9,11.27,7.2,0,12.26-6.05,13.14-9.51V373.18C379.88,378.35,373.67,381.49,362.73,383.35Z"/><path d="M459,403.1V405H433.4V403.1h8.74V367c0-7.64-3.35-11.44-8.69-11.44-10.78,0-16.28,15.35-16.28,24.25V403.1h9.08V405h-26V403.1h9.18V329.85h-9.18V328c7.7,0,12.43-.44,16.83-1.54v44.32c2.09-7.86,7.37-17.87,18.26-17.87,8.68,0,14.4,6,14.4,17.43V403.1Z"/><path d="M515.51,403.1V405a123.18,123.18,0,0,0-16.83,1V393.64c-1.76,4.56-7,12.76-16.44,12.76-10.51,0-15.45-9-15.45-18.32V356.13H457.6v-1.87c7.75,0,12.48-.44,16.83-1.54v38.5c0,8.14,3.68,12.48,9.73,12.48,8.47,0,13.53-9.68,14.52-14.41V356.13H489.5v-1.87c7.81,0,12.48-.44,16.82-1.54V403.1Z"/><path d="M573.42,403.1V405a122.9,122.9,0,0,0-16.82,1V393.64c-1.76,4.56-7,12.76-16.45,12.76-10.5,0-15.45-9-15.45-18.32V356.13h-9.18v-1.87c7.75,0,12.48-.44,16.82-1.54v38.5c0,8.14,3.69,12.48,9.74,12.48,8.47,0,13.52-9.68,14.52-14.41V356.13h-9.19v-1.87c7.81,0,12.49-.44,16.83-1.54V403.1Z"/><path d="M593.89,354.7c-6.11,0-10.62,3.58-10.62,8.86,0,6.1,5.83,8.3,15.07,11.44,8.69,3,16.06,5.93,16.06,15.45,0,9.29-7,15.95-16.44,15.95a19.07,19.07,0,0,1-13.31-5.5,6,6,0,0,0-4.29,4.84h-1.43l-1-18,1.76-.11c1.1,8.25,8,17,17.93,17,6.65,0,11.93-3.74,11.93-10.17,0-6.82-5.72-9-14.52-11.94s-15.73-6.81-15.73-15.89,6.88-13.69,14.47-13.69a17.46,17.46,0,0,1,12,4.73c2.42-.28,4-2.26,4.34-4.73h1.43l.88,17.27-1.81,0C609,360.75,601.75,354.7,593.89,354.7Z"/><path d="M192.2,474.94v-1h6V434h-6v-1h30.92l.45,13.95-1,0-.15-3.51c-.24-5.64-2.49-9.45-10.86-9.45H203v19.71h2.16a19,19,0,0,0,4.61-.39c2.46-.72,3.54-3.48,3.66-7.17h1v16.08h-1c-.15-4.23-1.17-6.45-3.54-7.14a19,19,0,0,0-4.73-.39H203v19.26h6.66v1Z"/><path d="M261.25,453.82a2.66,2.66,0,0,1-2.7-2.64,2.55,2.55,0,0,1,2.52-2.58,2.51,2.51,0,0,1,2.1,1.17,3.25,3.25,0,0,0-3.42-2.31c-5.79,0-8.16,9.48-8.16,16.8v9.66h5.28v1H242.23v-1h5V448.3h-5v-1a37.74,37.74,0,0,0,9.36-.84v11.19c.69-4.95,3.09-11.1,8.1-11.1,3,0,4.5,2,4.5,4.05A3,3,0,0,1,261.25,453.82Z"/><path d="M296,473.92v1H281.83v-1h5V448.3h-5v-1a36.6,36.6,0,0,0,9.18-.84v27.48Zm-7.23-33.42a2.6,2.6,0,1,1,2.61-2.61A2.57,2.57,0,0,1,288.79,440.5Z"/><path d="M323.26,447.52c-3.33,0-5.79,2-5.79,4.83,0,3.33,3.18,4.53,8.22,6.24,4.74,1.62,8.76,3.24,8.76,8.43s-3.81,8.7-9,8.7a10.39,10.39,0,0,1-7.26-3,3.26,3.26,0,0,0-2.34,2.64h-.78l-.54-9.84,1-.06c.6,4.5,4.35,9.27,9.78,9.27,3.63,0,6.51-2,6.51-5.55,0-3.72-3.12-4.92-7.92-6.51s-8.58-3.72-8.58-8.67,3.75-7.47,7.89-7.47a9.53,9.53,0,0,1,6.54,2.58,2.81,2.81,0,0,0,2.37-2.58h.78l.48,9.42-1,0C331.48,450.82,327.55,447.52,323.26,447.52Z"/><path d="M380.89,461.17c0,8.55-6.42,14.55-13.26,14.55a12.6,12.6,0,0,1-7.26-2.4l-3,4.65-.66-.48,2.94-4.71a14.86,14.86,0,0,1-5.31-11.64c0-8.52,6.42-14.61,13.26-14.61a12.38,12.38,0,0,1,7.14,2.34l3.27-5.16.72.48-3.3,5.19A14.94,14.94,0,0,1,380.89,461.17ZM359,461a19.65,19.65,0,0,0,2.16,9.81l12.48-20.37a7.11,7.11,0,0,0-5.88-2.94C362,447.52,359,453.1,359,461Zm17.34,0c0-4-.72-7.41-2.19-9.78l-12.45,20.34a7.13,7.13,0,0,0,6,3.12C373.21,474.73,376.3,469.18,376.3,461.05Z"/><path d="M418.54,453.82a2.66,2.66,0,0,1-2.7-2.64,2.55,2.55,0,0,1,2.52-2.58,2.51,2.51,0,0,1,2.1,1.17,3.25,3.25,0,0,0-3.42-2.31c-5.79,0-8.16,9.48-8.16,16.8v9.66h5.28v1H399.52v-1h5V448.3h-5v-1a37.74,37.74,0,0,0,9.36-.84v11.19c.69-4.95,3.09-11.1,8.1-11.1,3,0,4.5,2,4.5,4.05A3,3,0,0,1,418.54,453.82Z"/></g></g></svg>